<svg width="19" height="22" viewBox="0 0 19 22" fill="none" xmlns="http://www.w3.org/2000/svg">
<path d="M1.75 3.32118C1.75 2.25756 1.75 1.72575 1.97537 1.4326C2.17171 1.17721 2.4718 1.01917 2.79666 1.00008C3.16956 0.978175 3.61924 1.27317 4.51861 1.86316L16.2224 9.54093C16.9655 10.0284 17.3371 10.2722 17.4666 10.5794C17.5798 10.848 17.5798 11.1499 17.4666 11.4185C17.3371 11.7257 16.9655 11.9695 16.2224 12.457L4.5186 20.1347C3.61924 20.7247 3.16956 21.0197 2.79666 20.9978C2.4718 20.9787 2.17171 20.8207 1.97537 20.5653C1.75 20.2721 1.75 19.7403 1.75 18.6767V3.32118Z" stroke="white" stroke-width="2" stroke-linecap="round" stroke-linejoin="round"/>
</svg>
