<svg width="18" height="22" viewBox="0 0 18 22" fill="none" xmlns="http://www.w3.org/2000/svg">
<path d="M2.5 20.86L2.05334 19.9653L2.04238 19.9708L2.03157 19.9765L2.5 20.86ZM8.99 17.62L9.43721 16.7256L8.99034 16.5021L8.54334 16.7253L8.99 17.62ZM15.47 20.86L15.9739 19.9962L15.946 19.98L15.9172 19.9656L15.47 20.86ZM16.26 20.96L15.9759 20.0011L15.9659 20.0042L16.26 20.96ZM16.88 20.46L17.7593 20.9363L17.7624 20.9306L16.88 20.46ZM17 4.79H18.0001L17.9999 4.77897L17 4.79ZM12.07 0H5.9V2H12.07V0ZM5.9 0C4.44197 0 2.98985 0.285076 1.87265 1.04981C0.70045 1.85219 0 3.11526 0 4.79H2C2 3.74474 2.39955 3.11281 3.00235 2.70019C3.66015 2.24992 4.65803 2 5.9 2V0ZM0 4.79V19.97H2V4.79H0ZM0 19.97C0 21.0694 0.884931 21.99 2.01 21.99V19.99C2.00864 19.99 2.00842 19.9899 2.00896 19.99C2.00944 19.9901 2.00989 19.9902 2.01014 19.9904C2.01055 19.9905 2.00914 19.99 2.0069 19.9877C2.00463 19.9854 2.00283 19.9827 2.00172 19.98C2.00087 19.978 2 19.9751 2 19.97H0ZM2.01 21.99C2.37409 21.99 2.70504 21.8832 2.96843 21.7435L2.03157 19.9765C2.01734 19.984 2.00561 19.9883 1.99877 19.9901C1.99187 19.992 1.99566 19.99 2.01 19.99V21.99ZM2.94666 21.7547L9.43666 18.5147L8.54334 16.7253L2.05334 19.9653L2.94666 21.7547ZM8.54279 18.5144L15.0228 21.7544L15.9172 19.9656L9.43721 16.7256L8.54279 18.5144ZM14.9661 21.7238C15.4295 21.9941 16.0076 22.0839 16.5541 21.9158L15.9659 20.0042C15.9806 19.9997 15.9878 20.001 15.9861 20.0008C15.9854 20.0007 15.9837 20.0004 15.9812 19.9996C15.9787 19.9987 15.9762 19.9976 15.9739 19.9962L14.9661 21.7238ZM16.5441 21.9188C17.0677 21.7636 17.5023 21.4106 17.7593 20.9363L16.0007 19.9837C15.9986 19.9877 15.9961 19.9905 15.9933 19.9928C15.9906 19.995 15.9854 19.9984 15.9759 20.0012L16.5441 21.9188ZM17.7624 20.9306C17.9241 20.6272 18 20.2942 18 19.97H16C16 19.9769 15.9992 19.9828 15.9981 19.9869C15.9972 19.991 15.9965 19.9916 15.9976 19.9894L17.7624 20.9306ZM18 19.97V4.79H16V19.97H18ZM17.9999 4.77897C17.9815 3.10851 17.2765 1.84958 16.1038 1.04907C14.9845 0.285091 13.5331 0 12.07 0V2C13.3169 2 14.3155 2.24991 14.9762 2.70093C15.5835 3.11542 15.9885 3.75149 16.0001 4.80103L17.9999 4.77897Z" fill="white"/>
</svg>
