<svg width="22" height="22" viewBox="0 0 22 22" fill="none" xmlns="http://www.w3.org/2000/svg">
<path d="M20.23 13.37L21.0838 12.8493L21.0768 12.8379L21.0695 12.8266L20.23 13.37ZM19.4022 12.58L19.8713 11.6969L19.8566 11.6891L19.8417 11.6817L19.4022 12.58ZM20.2096 15.42L21.0685 15.9321L21.0776 15.9168L21.0861 15.9013L20.2096 15.42ZM19.4942 16.62L18.6352 16.1079L18.6332 16.1113L19.4942 16.62ZM16.6021 17.36L16.0631 18.2023L16.0717 18.2078L16.0803 18.2131L16.6021 17.36ZM13.8121 18.95L12.8126 18.919L12.8121 18.9345V18.95H13.8121ZM8.18113 18.95H9.18113V18.9397L9.18092 18.9294L8.18113 18.95ZM5.40141 17.36L5.92314 18.2131L5.93945 18.2031L5.95537 18.1925L5.40141 17.36ZM2.49905 16.62L1.63688 17.1266L1.63809 17.1287L2.49905 16.62ZM1.7939 15.42L0.929508 15.9228L0.931734 15.9266L1.7939 15.42ZM1.77346 13.37L2.62721 13.8907L2.63987 13.8699L2.65151 13.8486L1.77346 13.37ZM2.59102 12.58L2.15155 11.6817L2.13116 11.6917L2.11125 11.7026L2.59102 12.58ZM3.23486 11.94L4.07581 12.4811L4.08545 12.4661L4.09456 12.4508L3.23486 11.94ZM2.57059 9.44L3.07688 8.57764L3.0692 8.57313L3.06143 8.56875L2.57059 9.44ZM1.81434 6.61L2.67623 7.11713L2.67927 7.11189L1.81434 6.61ZM2.49905 5.43L1.64099 4.91626L1.63412 4.92811L2.49905 5.43ZM5.38097 4.67L4.88738 5.5397L4.89659 5.54492L4.90591 5.54995L5.38097 4.67ZM7.94608 3.98L8.79858 4.50273L8.8042 4.49357L8.80962 4.48428L7.94608 3.98ZM8.18113 3.1L7.1825 3.15234L7.18291 3.16016L7.18344 3.16797L8.18113 3.1ZM8.46728 2.04L9.30678 2.58336L9.31406 2.57212L9.32103 2.56068L8.46728 2.04ZM10.2761 1V0H10.2627L10.2493 0.000359178L10.2761 1ZM13.5362 2.04L12.6824 2.56068L12.6837 2.56273L13.5362 2.04ZM13.8121 3.1L12.8151 3.02163L12.8144 3.03203L13.8121 3.1ZM14.0472 3.98L13.1836 4.48428L13.189 4.49357L13.1947 4.50273L14.0472 3.98ZM16.6225 4.67L17.0934 5.55221L17.1067 5.54508L17.1198 5.53755L16.6225 4.67ZM19.4942 5.43L20.3591 4.9281L20.3561 4.92287L19.4942 5.43ZM20.1789 6.61L19.3139 7.11194L19.3209 7.12369L20.1789 6.61ZM19.4227 9.44L18.9356 8.56666L18.9259 8.57204L18.9164 8.57764L19.4227 9.44ZM18.7686 11.94L19.624 11.422L19.6238 11.4217L18.7686 11.94ZM21.0695 12.8266C20.8123 12.4293 20.421 11.9888 19.8713 11.6969L18.9331 13.4631C19.0988 13.5512 19.2593 13.7107 19.3905 13.9134L21.0695 12.8266ZM21.0861 15.9013C21.595 14.9746 21.6801 13.827 21.0838 12.8493L19.3763 13.8907C19.5362 14.153 19.5599 14.5254 19.333 14.9387L21.0861 15.9013ZM20.3532 17.1321L21.0685 15.9321L19.3506 14.9079L18.6352 16.1079L20.3532 17.1321ZM17.6853 18.66C18.767 18.66 19.7984 18.0711 20.3552 17.1287L18.6332 16.1113C18.4338 16.4489 18.0548 16.66 17.6853 16.66V18.66ZM16.0803 18.2131C16.5769 18.5168 17.1588 18.66 17.6853 18.66V16.66C17.4965 16.66 17.2812 16.6032 17.1238 16.5069L16.0803 18.2131ZM15.7027 18.13C15.9118 18.13 16.0104 18.1686 16.0631 18.2023L17.141 16.5177C16.6623 16.2114 16.1477 16.13 15.7027 16.13V18.13ZM14.8116 18.981C14.8255 18.5328 15.2294 18.13 15.7027 18.13V16.13C14.1526 16.13 12.86 17.3872 12.8126 18.919L14.8116 18.981ZM11.6967 22C13.3907 22 14.8121 20.6852 14.8121 18.95H12.8121C12.8121 19.5148 12.3531 20 11.6967 20V22ZM10.3068 22H11.6967V20H10.3068V22ZM7.18113 18.95C7.18113 20.6882 8.60571 22 10.3068 22V20C9.63695 20 9.18113 19.5118 9.18113 18.95H7.18113ZM6.30073 18.13C6.77626 18.13 7.1723 18.5328 7.18134 18.9706L9.18092 18.9294C9.14908 17.3872 7.84867 16.13 6.30073 16.13V18.13ZM5.95537 18.1925C5.98639 18.1719 6.07285 18.13 6.30073 18.13V16.13C5.85412 16.13 5.3274 16.2081 4.84744 16.5275L5.95537 18.1925ZM4.31813 18.66C4.83199 18.66 5.42458 18.518 5.92314 18.2131L4.87967 16.5069C4.72418 16.602 4.4992 16.66 4.31813 16.66V18.66ZM1.63809 17.1287C2.19624 18.0734 3.22888 18.66 4.31813 18.66V16.66C3.93577 16.66 3.55811 16.4466 3.36001 16.1113L1.63809 17.1287ZM0.931734 15.9266L1.63688 17.1266L3.36121 16.1134L2.65606 14.9134L0.931734 15.9266ZM0.919709 12.8493C0.330824 13.8149 0.386606 14.9896 0.929516 15.9228L2.65828 14.9172C2.44494 14.5504 2.45985 14.1651 2.62721 13.8907L0.919709 12.8493ZM2.11125 11.7026C1.61571 11.9736 1.16111 12.4039 0.895411 12.8914L2.65151 13.8486C2.71283 13.7361 2.87141 13.5664 3.0708 13.4574L2.11125 11.7026ZM2.39391 11.3989C2.24734 11.6267 2.18586 11.665 2.15155 11.6817L3.0305 13.4783C3.56849 13.215 3.87491 12.7933 4.07581 12.4811L2.39391 11.3989ZM2.06429 10.3024C2.47039 10.5408 2.59391 11.061 2.37516 11.4292L4.09456 12.4508C4.89776 11.099 4.40811 9.35922 3.07688 8.57764L2.06429 10.3024ZM0.952465 6.10287C0.0906266 7.56759 0.572755 9.46223 2.07974 10.3112L3.06143 8.56875C2.54494 8.27777 2.37302 7.63241 2.67621 7.11713L0.952465 6.10287ZM1.63412 4.92811L0.949405 6.10811L2.67927 7.11189L3.36398 5.93189L1.63412 4.92811ZM5.87455 3.8003C4.37393 2.94864 2.50916 3.46641 1.64107 4.91631L3.35702 5.94369C3.67441 5.41359 4.34409 5.23136 4.88738 5.5397L5.87455 3.8003ZM7.09358 3.45727C6.84774 3.85821 6.2743 4.01586 5.85603 3.79005L4.90591 5.54995C6.26585 6.28414 8.00203 5.80179 8.79858 4.50273L7.09358 3.45727ZM7.18344 3.16797C7.18671 3.21595 7.17506 3.31729 7.08254 3.47572L8.80962 4.48428C9.04413 4.08271 9.21643 3.58405 9.17882 3.03203L7.18344 3.16797ZM7.62778 1.49664C7.32749 1.96059 7.15026 2.53713 7.1825 3.15234L9.17976 3.04766C9.17112 2.88287 9.21872 2.71941 9.30678 2.58336L7.62778 1.49664ZM10.2493 0.000359178C9.16622 0.0293964 8.16925 0.608111 7.61353 1.51932L9.32103 2.56068C9.52155 2.23189 9.89401 2.0106 10.3029 1.99964L10.2493 0.000359178ZM11.7171 0H10.2761V2H11.7171V0ZM14.3899 1.51932C13.8435 0.623265 12.8467 0 11.7171 0V2C12.1 2 12.4727 2.21674 12.6824 2.56068L14.3899 1.51932ZM14.809 3.17837C14.86 2.53024 14.6552 1.95193 14.3887 1.51727L12.6837 2.56273C12.7851 2.72807 12.8256 2.88976 12.8152 3.02163L14.809 3.17837ZM14.9107 3.47572C14.8182 3.31729 14.8065 3.21595 14.8098 3.16797L12.8144 3.03203C12.7768 3.58405 12.9491 4.08271 13.1836 4.48428L14.9107 3.47572ZM16.1516 3.78779C15.7178 4.01937 15.1435 3.85496 14.8997 3.45727L13.1947 4.50273C13.9932 5.80504 15.7286 6.28063 17.0934 5.55221L16.1516 3.78779ZM20.3561 4.92287C19.4978 3.46423 17.6158 2.94792 16.1252 3.80245L17.1198 5.53755C17.6527 5.23208 18.3256 5.41577 18.6323 5.93713L20.3561 4.92287ZM21.0438 6.10811L20.3591 4.92811L18.6293 5.93189L19.314 7.11189L21.0438 6.10811ZM19.9098 10.3133C21.4295 9.4657 21.9166 7.56561 21.0369 6.09631L19.3209 7.12369C19.6267 7.63439 19.4597 8.2743 18.9356 8.56666L19.9098 10.3133ZM19.6238 11.4217C19.4026 11.0568 19.5229 10.5408 19.929 10.3024L18.9164 8.57764C17.5851 9.35922 17.0922 11.1032 17.9134 12.4583L19.6238 11.4217ZM19.8417 11.6817C19.8101 11.6663 19.7497 11.6297 19.624 11.422L17.9132 12.458C18.1145 12.7903 18.422 13.2137 18.9627 13.4783L19.8417 11.6817ZM11.012 12.83C9.92984 12.83 9.10959 11.9983 9.10959 11.01H7.10959C7.10959 13.1617 8.88512 14.83 11.012 14.83V12.83ZM12.8837 11.01C12.8837 12.0119 12.08 12.83 11.012 12.83V14.83C13.1528 14.83 14.8837 13.1481 14.8837 11.01H12.8837ZM11.012 9.18C12.0754 9.18 12.8837 10.0035 12.8837 11.01H14.8837C14.8837 8.87654 13.1575 7.18 11.012 7.18V9.18ZM9.10959 11.01C9.10959 10.0172 9.93453 9.18 11.012 9.18V7.18C8.88043 7.18 7.10959 8.86281 7.10959 11.01H9.10959Z" fill="white"/>
</svg>
