<svg width="50" height="50" viewBox="0 0 50 50" fill="none" xmlns="http://www.w3.org/2000/svg">
<rect x="1" y="1" width="48" height="48" rx="24" fill="#313131" stroke="white" stroke-width="2"/>
<path d="M27 29.2102C27 30.3402 27 30.9053 27.2283 31.1823C27.4266 31.4229 27.7258 31.5573 28.0374 31.5456C28.3961 31.5322 28.8184 31.1568 29.663 30.4061L34.6547 25.969C35.12 25.5554 35.3526 25.3486 35.4383 25.1044C35.5136 24.89 35.5136 24.6563 35.4383 24.4419C35.3526 24.1977 35.12 23.9909 34.6547 23.5773L29.663 19.1403C28.8184 18.3895 28.3961 18.0141 28.0374 18.0007C27.7258 17.989 27.4266 18.1234 27.2283 18.3641C27 18.6411 27 19.2061 27 20.3361V29.2102Z" stroke="white" stroke-width="2" stroke-linecap="round" stroke-linejoin="round"/>
<path d="M16 29.2102C16 30.3402 16 30.9053 16.2283 31.1823C16.4266 31.4229 16.7258 31.5573 17.0374 31.5456C17.3961 31.5322 17.8184 31.1568 18.663 30.4061L23.6547 25.969C24.12 25.5554 24.3526 25.3486 24.4383 25.1044C24.5136 24.89 24.5136 24.6563 24.4383 24.4419C24.3526 24.1977 24.12 23.9909 23.6547 23.5773L18.663 19.1403C17.8184 18.3895 17.3961 18.0141 17.0374 18.0007C16.7258 17.989 16.4266 18.1234 16.2283 18.3641C16 18.6411 16 19.2061 16 20.3361V29.2102Z" stroke="white" stroke-width="2" stroke-linecap="round" stroke-linejoin="round"/>
</svg>
