<svg width="70" height="70" viewBox="0 0 70 70" fill="none" xmlns="http://www.w3.org/2000/svg">
<rect x="1" y="1" width="68" height="68" rx="34" fill="#313131" stroke="white" stroke-width="2"/>
<path d="M26.25 24.2497C26.25 22.7606 26.25 22.0161 26.5655 21.6056C26.8404 21.2481 27.2605 21.0268 27.7153 21.0001C28.2374 20.9695 28.8669 21.3824 30.126 22.2084L46.5114 32.9573C47.5517 33.6398 48.0719 33.9811 48.2532 34.4112C48.4117 34.7872 48.4117 35.2098 48.2532 35.5859C48.0719 36.016 47.5517 36.3573 46.5114 37.0398L30.126 47.7886C28.8669 48.6146 28.2374 49.0276 27.7153 48.9969C27.2605 48.9702 26.8404 48.749 26.5655 48.3914C26.25 47.981 26.25 47.2365 26.25 45.7474V24.2497Z" stroke="white" stroke-width="2" stroke-linecap="round" stroke-linejoin="round"/>
</svg>
