<svg width="50" height="50" viewBox="0 0 50 50" fill="none" xmlns="http://www.w3.org/2000/svg">
<rect x="-1" y="1" width="48" height="48" rx="24" transform="matrix(-1 0 0 1 48 0)" fill="#313131" stroke="white" stroke-width="2"/>
<path d="M23 29.2102C23 30.3402 23 30.9053 22.7717 31.1823C22.5734 31.4229 22.2742 31.5573 21.9626 31.5456C21.6039 31.5322 21.1816 31.1568 20.337 30.4061L15.3453 25.969C14.88 25.5554 14.6474 25.3486 14.5617 25.1044C14.4864 24.89 14.4864 24.6563 14.5617 24.4419C14.6474 24.1977 14.88 23.9909 15.3453 23.5773L20.337 19.1403C21.1816 18.3895 21.6039 18.0141 21.9626 18.0007C22.2742 17.989 22.5734 18.1234 22.7717 18.3641C23 18.6411 23 19.2061 23 20.3361V29.2102Z" stroke="white" stroke-width="2" stroke-linecap="round" stroke-linejoin="round"/>
<path d="M34 29.2102C34 30.3402 34 30.9053 33.7717 31.1823C33.5734 31.4229 33.2742 31.5573 32.9626 31.5456C32.6039 31.5322 32.1816 31.1568 31.337 30.4061L26.3453 25.969C25.88 25.5554 25.6474 25.3486 25.5617 25.1044C25.4864 24.89 25.4864 24.6563 25.5617 24.4419C25.6474 24.1977 25.88 23.9909 26.3453 23.5773L31.337 19.1403C32.1816 18.3895 32.6039 18.0141 32.9626 18.0007C33.2742 17.989 33.5734 18.1234 33.7717 18.3641C34 18.6411 34 19.2061 34 20.3361V29.2102Z" stroke="white" stroke-width="2" stroke-linecap="round" stroke-linejoin="round"/>
</svg>
