<svg width="50" height="50" viewBox="0 0 50 50" fill="none" xmlns="http://www.w3.org/2000/svg">
<rect x="-1" y="1" width="48" height="48" rx="24" transform="matrix(-1 0 0 1 48 0)" fill="#313131" stroke="white" stroke-width="2"/>
<path d="M18 32V18M29.4005 19.0796L23.5617 23.7506C23.0279 24.1777 22.761 24.3912 22.6643 24.6492C22.5796 24.8754 22.5796 25.1246 22.6643 25.3508C22.761 25.6088 23.0279 25.8223 23.5617 26.2494L29.4005 30.9204C30.2327 31.5861 30.6487 31.919 30.9989 31.9194C31.3035 31.9197 31.5916 31.7812 31.7815 31.5432C32 31.2695 32 30.7367 32 29.671V20.329C32 19.2633 32 18.7304 31.7815 18.4568C31.5916 18.2188 31.3035 18.0803 30.9989 18.0806C30.6487 18.081 30.2327 18.4139 29.4005 19.0796Z" stroke="white" stroke-width="2" stroke-linecap="round" stroke-linejoin="round"/>
</svg>
