<svg width="50" height="50" viewBox="0 0 50 50" fill="none" xmlns="http://www.w3.org/2000/svg">
<rect x="1" y="1" width="48" height="48" rx="24" fill="#313131" stroke="white" stroke-width="2"/>
<path d="M31 28L34 31M34 31L31 34M34 31H31.5689C30.6297 31 30.1601 31 29.7338 30.8705C29.3564 30.7559 29.0054 30.5681 28.7007 30.3176C28.3565 30.0348 28.096 29.644 27.575 28.8626L27.3333 28.5M31 16L34 19M34 19L31 22M34 19H31.5689C30.6297 19 30.1601 19 29.7338 19.1295C29.3564 19.2441 29.0054 19.4319 28.7007 19.6824C28.3565 19.9652 28.096 20.356 27.575 21.1374L22.425 28.8626C21.904 29.644 21.6435 30.0348 21.2993 30.3176C20.9946 30.5681 20.6436 30.7559 20.2662 30.8705C19.8399 31 19.3703 31 18.4311 31H16M16 19H18.4311C19.3703 19 19.8399 19 20.2662 19.1295C20.6436 19.2441 20.9946 19.4319 21.2993 19.6824C21.6435 19.9652 21.904 20.356 22.425 21.1374L22.6667 21.5" stroke="white" stroke-width="2" stroke-linecap="round" stroke-linejoin="round"/>
</svg>
