<svg width="50" height="50" viewBox="0 0 50 50" fill="none" xmlns="http://www.w3.org/2000/svg">
<rect x="1" y="1" width="48" height="48" rx="24" fill="#313131" stroke="white" stroke-width="2"/>
<path d="M13.6215 17.6128L14.5786 21.1872L18.1541 20.2297M14.6287 20.4607C14.8023 20.0649 14.9995 19.6746 15.2207 19.2916C18.4725 13.6591 25.6747 11.7293 31.3072 14.9812C36.9396 18.2331 38.8694 25.4353 35.6175 31.0677C32.3656 36.7001 25.1635 38.63 19.531 35.3781C16.3273 33.5284 14.3215 30.4006 13.7858 27.0107" stroke="white" stroke-width="2" stroke-linecap="round" stroke-linejoin="round"/>
<path d="M22.9118 21.1612C22.9118 20.6294 22.9118 20.3635 23.0245 20.2169C23.1227 20.0893 23.2727 20.0102 23.4351 20.0007C23.6216 19.9897 23.8464 20.1372 24.2961 20.4322L30.148 24.2711C30.5196 24.5149 30.7054 24.6367 30.7701 24.7904C30.8267 24.9247 30.8267 25.0756 30.7701 25.2099C30.7054 25.3635 30.5196 25.4854 30.148 25.7291L24.2961 29.568C23.8464 29.863 23.6216 30.0105 23.4351 29.9996C23.2727 29.99 23.1227 29.911 23.0245 29.7833C22.9118 29.6367 22.9118 29.3708 22.9118 28.839V21.1612Z" stroke="white" stroke-width="2" stroke-linecap="round" stroke-linejoin="round"/>
</svg>
