<svg width="20" height="20" viewBox="0 0 20 20" fill="none" xmlns="http://www.w3.org/2000/svg">
<circle cx="10" cy="10" r="10" fill="white"/>
<path d="M6.25 15V12.5M6.25 7.5V5M5 6.25H7.5M5 13.75H7.5M10.5 5.5L9.63291 7.75443C9.49191 8.12105 9.4214 8.30435 9.31177 8.45854C9.21459 8.5952 9.0952 8.71459 8.95854 8.81176C8.80435 8.9214 8.62105 8.99191 8.25443 9.13291L6 10L8.25443 10.8671C8.62105 11.0081 8.80435 11.0786 8.95854 11.1882C9.0952 11.2854 9.21459 11.4048 9.31177 11.5415C9.4214 11.6956 9.49191 11.879 9.63291 12.2456L10.5 14.5L11.3671 12.2456C11.5081 11.879 11.5786 11.6956 11.6882 11.5415C11.7854 11.4048 11.9048 11.2854 12.0415 11.1882C12.1956 11.0786 12.379 11.0081 12.7456 10.8671L15 10L12.7456 9.13291C12.379 8.99191 12.1956 8.9214 12.0415 8.81176C11.9048 8.71459 11.7854 8.5952 11.6882 8.45854C11.5786 8.30435 11.5081 8.12105 11.3671 7.75443L10.5 5.5Z" stroke="#C9B501" stroke-linecap="round" stroke-linejoin="round"/>
</svg>
