<svg width="50" height="50" viewBox="0 0 50 50" fill="none" xmlns="http://www.w3.org/2000/svg">
<rect x="1" y="1" width="48" height="48" rx="24" fill="#313131" stroke="white" stroke-width="2"/>
<path d="M17 19.8C17 18.1198 17 17.2798 17.327 16.638C17.6146 16.0735 18.0735 15.6146 18.638 15.327C19.2798 15 20.1198 15 21.8 15H25.0118C25.7455 15 26.1124 15 26.4577 15.0829C26.7638 15.1564 27.0564 15.2776 27.3249 15.4421C27.6276 15.6276 27.887 15.887 28.4059 16.4059L31.5941 19.5941C32.113 20.113 32.3724 20.3724 32.5579 20.6751C32.7224 20.9436 32.8436 21.2362 32.9171 21.5423C33 21.8876 33 22.2545 33 22.9882V30.2C33 31.8802 33 32.7202 32.673 33.362C32.3854 33.9265 31.9265 34.3854 31.362 34.673C30.7202 35 29.8802 35 28.2 35H21.8C20.1198 35 19.2798 35 18.638 34.673C18.0735 34.3854 17.6146 33.9265 17.327 33.362C17 32.7202 17 31.8802 17 30.2V19.8Z" stroke="white" stroke-width="2" stroke-linecap="round" stroke-linejoin="round"/>
<path d="M21 26.8C21 26.52 21 26.38 21.0545 26.273C21.1024 26.1789 21.1789 26.1024 21.273 26.0545C21.38 26 21.52 26 21.8 26H28.2C28.48 26 28.62 26 28.727 26.0545C28.8211 26.1024 28.8976 26.1789 28.9455 26.273C29 26.38 29 26.52 29 26.8V30.2C29 30.48 29 30.62 28.9455 30.727C28.8976 30.8211 28.8211 30.8976 28.727 30.9455C28.62 31 28.48 31 28.2 31H21.8C21.52 31 21.38 31 21.273 30.9455C21.1789 30.8976 21.1024 30.8211 21.0545 30.727C21 30.62 21 30.48 21 30.2V26.8Z" stroke="white" stroke-width="2" stroke-linecap="round" stroke-linejoin="round"/>
</svg>
