<svg width="297" height="32" viewBox="0 0 297 32" fill="none" xmlns="http://www.w3.org/2000/svg">
<path d="M0.535423 31V0.454545H7.91824V13.3707H8.32093L18.4182 0.454545H27.1135L16.2854 14.0866L27.3074 31H18.4779L10.8714 18.9936L7.91824 22.7223V31H0.535423ZM36.6329 31H28.6982L39.0044 0.454545H48.8332L59.1393 31H51.2046L44.0306 8.15057H43.792L36.6329 31ZM35.574 18.9787H52.1592V24.5866H35.574V18.9787Z" fill="#DF7A7A"/>
<path d="M62.428 31V0.454545H75.0459C77.3328 0.454545 79.3066 0.867187 80.9671 1.69247C82.6375 2.50781 83.9252 3.68111 84.83 5.21236C85.7348 6.73366 86.1872 8.53835 86.1872 10.6264C86.1872 12.7443 85.7249 14.544 84.8002 16.0256C83.8754 17.4972 82.5629 18.6207 80.8627 19.3963C79.1624 20.1619 77.1489 20.5447 74.8222 20.5447H66.8428V14.728H73.45C74.5637 14.728 75.4933 14.5838 76.2391 14.2955C76.9948 13.9972 77.5665 13.5497 77.9543 12.9531C78.3421 12.3466 78.536 11.571 78.536 10.6264C78.536 9.68182 78.3421 8.90128 77.9543 8.2848C77.5665 7.65838 76.9948 7.19105 76.2391 6.88281C75.4834 6.56463 74.5537 6.40554 73.45 6.40554H69.8108V31H62.428ZM79.6247 17.0398L87.2313 31H79.1773L71.7199 17.0398H79.6247ZM96.8438 31H88.9092L99.2153 0.454545H109.044L119.35 31H111.416L104.242 8.15057H104.003L96.8438 31ZM95.7849 18.9787H112.37V24.5866H95.7849V18.9787Z" fill="#34D31A"/>
<path d="M122.639 31V0.454545H130.022V13.3707H130.424L140.522 0.454545H149.217L138.389 14.0866L149.411 31H140.581L132.975 18.9936L130.022 22.7223V31H122.639ZM152.129 31V0.454545H159.512V13.3707H159.915L170.012 0.454545H178.707L167.879 14.0866L178.901 31H170.072L162.465 18.9936L159.512 22.7223V31H152.129Z" fill="white"/>
<path d="M210.45 15.7273C210.45 19.0881 209.803 21.9368 208.511 24.2734C207.218 26.6101 205.468 28.3849 203.261 29.598C201.063 30.8111 198.597 31.4176 195.863 31.4176C193.119 31.4176 190.648 30.8061 188.45 29.5831C186.253 28.3601 184.508 26.5852 183.215 24.2585C181.933 21.9219 181.291 19.0781 181.291 15.7273C181.291 12.3665 181.933 9.51776 183.215 7.18111C184.508 4.84446 186.253 3.0696 188.45 1.85653C190.648 0.643465 193.119 0.0369307 195.863 0.0369307C198.597 0.0369307 201.063 0.643465 203.261 1.85653C205.468 3.0696 207.218 4.84446 208.511 7.18111C209.803 9.51776 210.45 12.3665 210.45 15.7273ZM202.903 15.7273C202.903 13.7386 202.619 12.0582 202.053 10.6861C201.496 9.31392 200.69 8.27486 199.636 7.56889C198.592 6.86292 197.335 6.50994 195.863 6.50994C194.401 6.50994 193.144 6.86292 192.09 7.56889C191.036 8.27486 190.225 9.31392 189.658 10.6861C189.102 12.0582 188.823 13.7386 188.823 15.7273C188.823 17.7159 189.102 19.3963 189.658 20.7685C190.225 22.1406 191.036 23.1797 192.09 23.8857C193.144 24.5916 194.401 24.9446 195.863 24.9446C197.335 24.9446 198.592 24.5916 199.636 23.8857C200.69 23.1797 201.496 22.1406 202.053 20.7685C202.619 19.3963 202.903 17.7159 202.903 15.7273ZM219.891 0.454545L226.722 22.8267H226.975L233.806 0.454545H242.069L231.763 31H221.934L211.628 0.454545H219.891Z" fill="#5842E4"/>
<path d="M245.358 31V0.454545H266.656V6.45028H252.741V12.7145H265.567V18.7251H252.741V25.0043H266.656V31H245.358ZM271.28 31V0.454545H283.897C286.184 0.454545 288.158 0.867187 289.819 1.69247C291.489 2.50781 292.777 3.68111 293.682 5.21236C294.586 6.73366 295.039 8.53835 295.039 10.6264C295.039 12.7443 294.576 14.544 293.652 16.0256C292.727 17.4972 291.415 18.6207 289.714 19.3963C288.014 20.1619 286 20.5447 283.674 20.5447H275.694V14.728H282.302C283.415 14.728 284.345 14.5838 285.091 14.2955C285.846 13.9972 286.418 13.5497 286.806 12.9531C287.194 12.3466 287.388 11.571 287.388 10.6264C287.388 9.68182 287.194 8.90128 286.806 8.2848C286.418 7.65838 285.846 7.19105 285.091 6.88281C284.335 6.56463 283.405 6.40554 282.302 6.40554H278.662V31H271.28ZM288.476 17.0398L296.083 31H288.029L280.571 17.0398H288.476Z" fill="#FA7238"/>
</svg>
