<svg width="17" height="15" viewBox="0 0 17 15" fill="none" xmlns="http://www.w3.org/2000/svg">
<path d="M0.22068 7.72564C0.22068 7.34595 0.502834 7.03215 0.86891 6.98249L0.97068 6.97564L14.1547 6.97624L9.39169 2.23271C9.09817 1.94045 9.09715 1.46558 9.38941 1.17206C9.6551 0.905218 10.0717 0.880115 10.3658 1.09734L10.4501 1.16977L16.5001 7.19377C16.5388 7.2323 16.5724 7.27399 16.6009 7.31802C16.6089 7.33127 16.6171 7.34483 16.6249 7.35866C16.6321 7.37052 16.6385 7.38283 16.6446 7.39528C16.6531 7.41339 16.6614 7.4321 16.6689 7.45119C16.675 7.46591 16.6801 7.48022 16.6847 7.49465C16.6902 7.51255 16.6956 7.53161 16.7002 7.55097C16.7037 7.56449 16.7064 7.5775 16.7088 7.59056C16.7121 7.60999 16.7149 7.6301 16.717 7.65044C16.7187 7.66596 16.7198 7.68134 16.7203 7.69673C16.7205 7.70606 16.7207 7.71583 16.7207 7.72564L16.7203 7.7547C16.7197 7.76942 16.7187 7.78412 16.7173 7.7988L16.7207 7.72564C16.7207 7.77297 16.7163 7.81928 16.7079 7.86417C16.706 7.8749 16.7037 7.88591 16.7011 7.89687C16.6958 7.91945 16.6896 7.94119 16.6825 7.9625C16.679 7.97309 16.675 7.98441 16.6706 7.99564C16.6619 8.0182 16.6524 8.03972 16.6419 8.06067C16.637 8.07053 16.6316 8.08084 16.6258 8.09105C16.6165 8.10771 16.6068 8.12354 16.5966 8.13897C16.5894 8.14989 16.5814 8.16126 16.5731 8.17245L16.5666 8.18109C16.5464 8.20749 16.5245 8.23251 16.501 8.25597L16.5001 8.25667L10.4501 14.2817C10.1566 14.574 9.68174 14.573 9.38945 14.2795C9.12374 14.0127 9.1004 13.5959 9.31886 13.3028L9.39165 13.2188L14.1527 8.47624L0.97068 8.47564C0.556467 8.47564 0.22068 8.13986 0.22068 7.72564Z" fill="#2A2D40"/>
</svg>
