<svg width="72" height="72" viewBox="0 0 72 72" fill="none" xmlns="http://www.w3.org/2000/svg">
<rect x="1" y="1" width="70" height="70" rx="35" stroke="white" stroke-width="2" stroke-dasharray="10 10"/>
<rect x="5.2207" y="5" width="62" height="62" rx="31" fill="white"/>
<path d="M28.2207 35.7256C28.2207 35.3459 28.5028 35.0322 28.8689 34.9825L28.9707 34.9756L42.1547 34.9762L37.3917 30.2327C37.0982 29.9405 37.0971 29.4656 37.3894 29.1721C37.6551 28.9052 38.0717 28.8801 38.3658 29.0973L38.4501 29.1698L44.5001 35.1938C44.5387 35.2323 44.5724 35.274 44.6009 35.318C44.6089 35.3313 44.6171 35.3448 44.6249 35.3587C44.6321 35.3705 44.6385 35.3828 44.6446 35.3953C44.6531 35.4134 44.6614 35.4321 44.6689 35.4512C44.675 35.4659 44.6801 35.4802 44.6847 35.4947C44.6902 35.5125 44.6956 35.5316 44.7002 35.551C44.7037 35.5645 44.7064 35.5775 44.7087 35.5906C44.7121 35.61 44.7149 35.6301 44.7169 35.6504C44.7187 35.666 44.7198 35.6813 44.7203 35.6967C44.7205 35.7061 44.7207 35.7158 44.7207 35.7256L44.7203 35.7547C44.7197 35.7694 44.7187 35.7841 44.7173 35.7988L44.7207 35.7256C44.7207 35.773 44.7163 35.8193 44.7079 35.8642C44.706 35.8749 44.7036 35.8859 44.7011 35.8969C44.6958 35.9194 44.6896 35.9412 44.6825 35.9625C44.679 35.9731 44.675 35.9844 44.6706 35.9956C44.6619 36.0182 44.6523 36.0397 44.6419 36.0607C44.637 36.0705 44.6315 36.0808 44.6258 36.0911C44.6165 36.1077 44.6068 36.1235 44.5966 36.139C44.5894 36.1499 44.5814 36.1613 44.5731 36.1724L44.5666 36.1811C44.5464 36.2075 44.5245 36.2325 44.501 36.256L44.5001 36.2567L38.4501 42.2817C38.1566 42.574 37.6817 42.573 37.3894 42.2795C37.1237 42.0127 37.1004 41.5959 37.3188 41.3028L37.3916 41.2188L42.1527 36.4762L28.9707 36.4756C28.5565 36.4756 28.2207 36.1399 28.2207 35.7256Z" fill="#2A2D40"/>
</svg>
