<svg width="50" height="50" viewBox="0 0 50 50" fill="none" xmlns="http://www.w3.org/2000/svg">
<rect x="1" y="1" width="48" height="48" rx="24" fill="#313131" stroke="white" stroke-width="2"/>
<path d="M18.75 17.3212C18.75 16.2576 18.75 15.7258 18.9754 15.4326C19.1717 15.1772 19.4718 15.0192 19.7967 15.0001C20.1696 14.9782 20.6192 15.2732 21.5186 15.8632L33.2224 23.5409C33.9655 24.0284 34.3371 24.2722 34.4666 24.5794C34.5798 24.848 34.5798 25.1499 34.4666 25.4185C34.3371 25.7257 33.9655 25.9695 33.2224 26.457L21.5186 34.1347C20.6192 34.7247 20.1696 35.0197 19.7967 34.9978C19.4718 34.9787 19.1717 34.8207 18.9754 34.5653C18.75 34.2721 18.75 33.7403 18.75 32.6767V17.3212Z" stroke="white" stroke-width="2" stroke-linecap="round" stroke-linejoin="round"/>
</svg>
