<svg width="64" height="69" viewBox="0 0 64 69" fill="none" xmlns="http://www.w3.org/2000/svg">
<rect x="8" y="1" width="48" height="48" rx="24" fill="#313131" stroke="white" stroke-width="2"/>
<path d="M34 20L30 30M27.8 34H36.2C37.8802 34 38.7202 34 39.362 33.673C39.9265 33.3854 40.3854 32.9265 40.673 32.362C41 31.7202 41 30.8802 41 29.2V20.8C41 19.1198 41 18.2798 40.673 17.638C40.3854 17.0735 39.9265 16.6146 39.362 16.327C38.7202 16 37.8802 16 36.2 16H27.8C26.1198 16 25.2798 16 24.638 16.327C24.0735 16.6146 23.6146 17.0735 23.327 17.638C23 18.2798 23 19.1198 23 20.8V29.2C23 30.8802 23 31.7202 23.327 32.362C23.6146 32.9265 24.0735 33.3854 24.638 33.673C25.2798 34 26.1198 34 27.8 34Z" stroke="white" stroke-width="2" stroke-linecap="round" stroke-linejoin="round"/>
<path d="M1.26833 68V59.54H2.25233L5.58833 67.052H5.22833L8.56433 59.54H9.53633V68H8.51633V61.028H8.88833L5.75633 68H5.04833L1.91633 61.028H2.28833V68H1.26833ZM14.2323 68.108C13.2723 68.108 12.5123 67.832 11.9523 67.28C11.4003 66.728 11.1243 65.968 11.1243 65C11.1243 64.36 11.2443 63.808 11.4843 63.344C11.7323 62.872 12.0723 62.508 12.5043 62.252C12.9363 61.988 13.4403 61.856 14.0163 61.856C14.5683 61.856 15.0363 61.976 15.4203 62.216C15.8043 62.448 16.0963 62.78 16.2963 63.212C16.4963 63.644 16.5963 64.156 16.5963 64.748V65.108H11.9763V64.46H15.8523L15.6483 64.616C15.6483 63.992 15.5083 63.508 15.2283 63.164C14.9563 62.82 14.5523 62.648 14.0163 62.648C13.4323 62.648 12.9803 62.852 12.6603 63.26C12.3403 63.66 12.1803 64.208 12.1803 64.904V65.012C12.1803 65.748 12.3603 66.304 12.7203 66.68C13.0883 67.056 13.5963 67.244 14.2443 67.244C14.6043 67.244 14.9403 67.192 15.2523 67.088C15.5643 66.984 15.8643 66.812 16.1523 66.572L16.5123 67.328C16.2403 67.576 15.9003 67.768 15.4923 67.904C15.0923 68.04 14.6723 68.108 14.2323 68.108ZM20.2676 68.108C19.6356 68.108 19.1556 67.936 18.8276 67.592C18.5076 67.24 18.3476 66.712 18.3476 66.008V62.804H17.1716V61.964H18.3476V60.344L19.4396 60.044V61.964H21.1436V62.804H19.4396V65.912C19.4396 66.376 19.5196 66.708 19.6796 66.908C19.8476 67.1 20.0876 67.196 20.3996 67.196C20.5596 67.196 20.6956 67.184 20.8076 67.16C20.9276 67.128 21.0356 67.092 21.1316 67.052V67.952C21.0116 68 20.8716 68.036 20.7116 68.06C20.5596 68.092 20.4116 68.108 20.2676 68.108ZM22.277 68V63.44C22.277 63.2 22.269 62.956 22.253 62.708C22.245 62.452 22.225 62.204 22.193 61.964H23.249L23.381 63.476L23.201 63.488C23.281 63.12 23.417 62.816 23.609 62.576C23.809 62.328 24.045 62.148 24.317 62.036C24.597 61.916 24.885 61.856 25.181 61.856C25.309 61.856 25.417 61.86 25.505 61.868C25.593 61.876 25.681 61.896 25.769 61.928L25.745 62.9C25.625 62.852 25.513 62.824 25.409 62.816C25.313 62.8 25.193 62.792 25.049 62.792C24.697 62.792 24.393 62.872 24.137 63.032C23.889 63.192 23.697 63.404 23.561 63.668C23.433 63.932 23.369 64.216 23.369 64.52V68H22.277ZM29.1923 68.108C28.6003 68.108 28.0883 67.984 27.6563 67.736C27.2243 67.48 26.8883 67.12 26.6483 66.656C26.4083 66.184 26.2883 65.624 26.2883 64.976C26.2883 64.336 26.4083 63.784 26.6483 63.32C26.8883 62.848 27.2243 62.488 27.6563 62.24C28.0883 61.984 28.6003 61.856 29.1923 61.856C29.7843 61.856 30.2963 61.984 30.7283 62.24C31.1683 62.488 31.5043 62.848 31.7363 63.32C31.9763 63.784 32.0963 64.336 32.0963 64.976C32.0963 65.624 31.9763 66.184 31.7363 66.656C31.5043 67.12 31.1683 67.48 30.7283 67.736C30.2963 67.984 29.7843 68.108 29.1923 68.108ZM29.1923 67.244C29.7363 67.244 30.1723 67.052 30.5003 66.668C30.8283 66.284 30.9923 65.72 30.9923 64.976C30.9923 64.232 30.8283 63.672 30.5003 63.296C30.1723 62.92 29.7363 62.732 29.1923 62.732C28.6403 62.732 28.2003 62.92 27.8723 63.296C27.5523 63.672 27.3923 64.232 27.3923 64.976C27.3923 65.72 27.5523 66.284 27.8723 66.668C28.2003 67.052 28.6403 67.244 29.1923 67.244ZM33.5624 68V63.392C33.5624 63.16 33.5544 62.924 33.5384 62.684C33.5224 62.444 33.4984 62.204 33.4664 61.964H34.5224L34.6424 63.26H34.4984C34.6824 62.804 34.9664 62.456 35.3504 62.216C35.7344 61.976 36.1824 61.856 36.6944 61.856C37.4064 61.856 37.9424 62.052 38.3024 62.444C38.6624 62.828 38.8424 63.428 38.8424 64.244V68H37.7504V64.304C37.7504 63.752 37.6424 63.356 37.4264 63.116C37.2104 62.868 36.8744 62.744 36.4184 62.744C35.8744 62.744 35.4424 62.908 35.1224 63.236C34.8104 63.564 34.6544 64.008 34.6544 64.568V68H33.5624ZM43.1728 68.108C42.5808 68.108 42.0688 67.984 41.6368 67.736C41.2048 67.48 40.8688 67.12 40.6288 66.656C40.3888 66.184 40.2688 65.624 40.2688 64.976C40.2688 64.336 40.3888 63.784 40.6288 63.32C40.8688 62.848 41.2048 62.488 41.6368 62.24C42.0688 61.984 42.5808 61.856 43.1728 61.856C43.7648 61.856 44.2768 61.984 44.7088 62.24C45.1488 62.488 45.4848 62.848 45.7168 63.32C45.9568 63.784 46.0768 64.336 46.0768 64.976C46.0768 65.624 45.9568 66.184 45.7168 66.656C45.4848 67.12 45.1488 67.48 44.7088 67.736C44.2768 67.984 43.7648 68.108 43.1728 68.108ZM43.1728 67.244C43.7168 67.244 44.1528 67.052 44.4808 66.668C44.8088 66.284 44.9728 65.72 44.9728 64.976C44.9728 64.232 44.8088 63.672 44.4808 63.296C44.1528 62.92 43.7168 62.732 43.1728 62.732C42.6208 62.732 42.1808 62.92 41.8528 63.296C41.5328 63.672 41.3728 64.232 41.3728 64.976C41.3728 65.72 41.5328 66.284 41.8528 66.668C42.1808 67.052 42.6208 67.244 43.1728 67.244ZM47.5429 68V63.392C47.5429 63.16 47.5349 62.924 47.5189 62.684C47.5029 62.444 47.4789 62.204 47.4469 61.964H48.5029L48.6229 63.26H48.4789C48.6389 62.812 48.8949 62.468 49.2469 62.228C49.5989 61.98 50.0189 61.856 50.5069 61.856C51.0029 61.856 51.4109 61.976 51.7309 62.216C52.0509 62.448 52.2669 62.816 52.3789 63.32H52.1989C52.3509 62.872 52.6189 62.516 53.0029 62.252C53.3869 61.988 53.8349 61.856 54.3469 61.856C55.0109 61.856 55.5109 62.052 55.8469 62.444C56.1829 62.828 56.3509 63.428 56.3509 64.244V68H55.2589V64.304C55.2589 63.752 55.1629 63.356 54.9709 63.116C54.7789 62.868 54.4749 62.744 54.0589 62.744C53.5709 62.744 53.1869 62.912 52.9069 63.248C52.6269 63.576 52.4869 64.024 52.4869 64.592V68H51.3949V64.304C51.3949 63.752 51.2989 63.356 51.1069 63.116C50.9229 62.868 50.6189 62.744 50.1949 62.744C49.7069 62.744 49.3229 62.912 49.0429 63.248C48.7709 63.576 48.6349 64.024 48.6349 64.592V68H47.5429ZM60.8846 68.108C59.9246 68.108 59.1646 67.832 58.6046 67.28C58.0526 66.728 57.7766 65.968 57.7766 65C57.7766 64.36 57.8966 63.808 58.1366 63.344C58.3846 62.872 58.7246 62.508 59.1566 62.252C59.5886 61.988 60.0926 61.856 60.6686 61.856C61.2206 61.856 61.6886 61.976 62.0726 62.216C62.4566 62.448 62.7486 62.78 62.9486 63.212C63.1486 63.644 63.2486 64.156 63.2486 64.748V65.108H58.6286V64.46H62.5046L62.3006 64.616C62.3006 63.992 62.1606 63.508 61.8806 63.164C61.6086 62.82 61.2046 62.648 60.6686 62.648C60.0846 62.648 59.6326 62.852 59.3126 63.26C58.9926 63.66 58.8326 64.208 58.8326 64.904V65.012C58.8326 65.748 59.0126 66.304 59.3726 66.68C59.7406 67.056 60.2486 67.244 60.8966 67.244C61.2566 67.244 61.5926 67.192 61.9046 67.088C62.2166 66.984 62.5166 66.812 62.8046 66.572L63.1646 67.328C62.8926 67.576 62.5526 67.768 62.1446 67.904C61.7446 68.04 61.3246 68.108 60.8846 68.108Z" fill="white"/>
</svg>
