<svg width="50" height="71" viewBox="0 0 50 71" fill="none" xmlns="http://www.w3.org/2000/svg">
<rect x="1" y="1" width="48" height="48" rx="24" fill="#313131" stroke="white" stroke-width="2"/>
<path d="M26 35L23 32M23 32L26 29M23 32H28C31.866 32 35 28.866 35 25C35 22.2076 33.3649 19.7971 31 18.6736M19 31.3264C16.6351 30.2029 15 27.7924 15 25C15 21.134 18.134 18 22 18H27M27 18L24 15M27 18L24 21" stroke="white" stroke-width="2" stroke-linecap="round" stroke-linejoin="round"/>
<path d="M11.2215 68V59.54H12.3375V67.04H16.5495V68H11.2215ZM20.1728 68.108C19.5808 68.108 19.0688 67.984 18.6368 67.736C18.2048 67.48 17.8688 67.12 17.6288 66.656C17.3888 66.184 17.2688 65.624 17.2688 64.976C17.2688 64.336 17.3888 63.784 17.6288 63.32C17.8688 62.848 18.2048 62.488 18.6368 62.24C19.0688 61.984 19.5808 61.856 20.1728 61.856C20.7648 61.856 21.2768 61.984 21.7088 62.24C22.1488 62.488 22.4848 62.848 22.7168 63.32C22.9568 63.784 23.0768 64.336 23.0768 64.976C23.0768 65.624 22.9568 66.184 22.7168 66.656C22.4848 67.12 22.1488 67.48 21.7088 67.736C21.2768 67.984 20.7648 68.108 20.1728 68.108ZM20.1728 67.244C20.7168 67.244 21.1528 67.052 21.4808 66.668C21.8088 66.284 21.9728 65.72 21.9728 64.976C21.9728 64.232 21.8088 63.672 21.4808 63.296C21.1528 62.92 20.7168 62.732 20.1728 62.732C19.6208 62.732 19.1808 62.92 18.8528 63.296C18.5328 63.672 18.3728 64.232 18.3728 64.976C18.3728 65.72 18.5328 66.284 18.8528 66.668C19.1808 67.052 19.6208 67.244 20.1728 67.244ZM27.0869 68.108C26.4949 68.108 25.9829 67.984 25.5509 67.736C25.1189 67.48 24.7829 67.12 24.5429 66.656C24.3029 66.184 24.1829 65.624 24.1829 64.976C24.1829 64.336 24.3029 63.784 24.5429 63.32C24.7829 62.848 25.1189 62.488 25.5509 62.24C25.9829 61.984 26.4949 61.856 27.0869 61.856C27.6789 61.856 28.1909 61.984 28.6229 62.24C29.0629 62.488 29.3989 62.848 29.6309 63.32C29.8709 63.784 29.9909 64.336 29.9909 64.976C29.9909 65.624 29.8709 66.184 29.6309 66.656C29.3989 67.12 29.0629 67.48 28.6229 67.736C28.1909 67.984 27.6789 68.108 27.0869 68.108ZM27.0869 67.244C27.6309 67.244 28.0669 67.052 28.3949 66.668C28.7229 66.284 28.8869 65.72 28.8869 64.976C28.8869 64.232 28.7229 63.672 28.3949 63.296C28.0669 62.92 27.6309 62.732 27.0869 62.732C26.5349 62.732 26.0949 62.92 25.7669 63.296C25.4469 63.672 25.2869 64.232 25.2869 64.976C25.2869 65.72 25.4469 66.284 25.7669 66.668C26.0949 67.052 26.5349 67.244 27.0869 67.244ZM31.4569 70.592V63.392C31.4569 63.16 31.4489 62.924 31.4329 62.684C31.4169 62.444 31.3929 62.204 31.3609 61.964H32.4169L32.5489 63.356H32.4169C32.5369 62.892 32.7929 62.528 33.1849 62.264C33.5769 61.992 34.0449 61.856 34.5889 61.856C35.1249 61.856 35.5929 61.98 35.9929 62.228C36.3929 62.476 36.7009 62.836 36.9169 63.308C37.1409 63.772 37.2529 64.328 37.2529 64.976C37.2529 65.624 37.1409 66.184 36.9169 66.656C36.7009 67.128 36.3929 67.488 35.9929 67.736C35.5929 67.984 35.1249 68.108 34.5889 68.108C34.0529 68.108 33.5889 67.976 33.1969 67.712C32.8129 67.44 32.5529 67.076 32.4169 66.62H32.5489V70.592H31.4569ZM34.3369 67.244C34.8889 67.244 35.3289 67.052 35.6569 66.668C35.9849 66.284 36.1489 65.72 36.1489 64.976C36.1489 64.232 35.9849 63.672 35.6569 63.296C35.3289 62.92 34.8889 62.732 34.3369 62.732C33.7849 62.732 33.3449 62.92 33.0169 63.296C32.6969 63.672 32.5369 64.232 32.5369 64.976C32.5369 65.72 32.6969 66.284 33.0169 66.668C33.3449 67.052 33.7849 67.244 34.3369 67.244Z" fill="white"/>
</svg>
