<svg width="20" height="18" viewBox="0 0 20 18" fill="none" xmlns="http://www.w3.org/2000/svg">
<path d="M1.25 5.25L10 9L18.75 5.25M5.25 16.5H14.75C16.1501 16.5 16.8502 16.5 17.385 16.2275C17.8554 15.9878 18.2378 15.6054 18.4775 15.135C18.75 14.6002 18.75 13.9001 18.75 12.5V5.5C18.75 4.09987 18.75 3.3998 18.4775 2.86502C18.2378 2.39462 17.8554 2.01217 17.385 1.77248C16.8502 1.5 16.1501 1.5 14.75 1.5H5.25C3.84987 1.5 3.1498 1.5 2.61502 1.77248C2.14462 2.01217 1.76217 2.39462 1.52248 2.86502C1.25 3.3998 1.25 4.09987 1.25 5.5V12.5C1.25 13.9001 1.25 14.6002 1.52248 15.135C1.76217 15.6054 2.14462 15.9878 2.61502 16.2275C3.1498 16.5 3.84987 16.5 5.25 16.5Z" stroke="white" stroke-width="1.5" stroke-linejoin="round"/>
</svg>
