<svg width="14" height="14" viewBox="0 0 14 14" fill="none" xmlns="http://www.w3.org/2000/svg">
<path d="M6.99996 7.58329C7.32213 7.58329 7.58329 7.32213 7.58329 6.99996C7.58329 6.67779 7.32213 6.41663 6.99996 6.41663C6.67779 6.41663 6.41663 6.67779 6.41663 6.99996C6.41663 7.32213 6.67779 7.58329 6.99996 7.58329Z" fill="white" stroke="white" stroke-width="2" stroke-linecap="round" stroke-linejoin="round"/>
<path d="M6.99996 3.50004C7.32213 3.50004 7.58329 3.23887 7.58329 2.91671C7.58329 2.59454 7.32213 2.33337 6.99996 2.33337C6.67779 2.33337 6.41663 2.59454 6.41663 2.91671C6.41663 3.23887 6.67779 3.50004 6.99996 3.50004Z" fill="white" stroke="white" stroke-width="2" stroke-linecap="round" stroke-linejoin="round"/>
<path d="M6.99996 11.6667C7.32213 11.6667 7.58329 11.4055 7.58329 11.0833C7.58329 10.7612 7.32213 10.5 6.99996 10.5C6.67779 10.5 6.41663 10.7612 6.41663 11.0833C6.41663 11.4055 6.67779 11.6667 6.99996 11.6667Z" fill="white" stroke="white" stroke-width="2" stroke-linecap="round" stroke-linejoin="round"/>
</svg>
