<svg width="18" height="20" viewBox="0 0 18 20" fill="none" xmlns="http://www.w3.org/2000/svg">
<path d="M1.5 12.75C1.5 11.3499 1.5 10.6498 1.77248 10.115C2.01217 9.64462 2.39462 9.26217 2.86502 9.02248C3.3998 8.75 4.09987 8.75 5.5 8.75H12.5C13.9001 8.75 14.6002 8.75 15.135 9.02248C15.6054 9.26217 15.9878 9.64462 16.2275 10.115C16.5 10.6498 16.5 11.3499 16.5 12.75V14.75C16.5 16.1501 16.5 16.8502 16.2275 17.385C15.9878 17.8554 15.6054 18.2378 15.135 18.4775C14.6002 18.75 13.9001 18.75 12.5 18.75H5.5C4.09987 18.75 3.3998 18.75 2.86502 18.4775C2.39462 18.2378 2.01217 17.8554 1.77248 17.385C1.5 16.8502 1.5 16.1501 1.5 14.75V12.75Z" stroke="white" stroke-width="1.5"/>
<path d="M5.25 8.75L5.25 5C5.25 3.83515 5.25 3.25272 5.4403 2.79329C5.69404 2.18072 6.18072 1.69404 6.79329 1.4403C7.25272 1.25 7.83515 1.25 9 1.25C10.1649 1.25 10.7473 1.25 11.2067 1.4403C11.8193 1.69404 12.306 2.18072 12.5597 2.79329C12.75 3.25272 12.75 3.83515 12.75 5V8.75H5.25Z" stroke="white" stroke-width="1.5"/>
</svg>
