<svg width="18" height="15" viewBox="0 0 18 15" fill="none" xmlns="http://www.w3.org/2000/svg">
<path fill-rule="evenodd" clip-rule="evenodd" d="M8.99927 5.07688C7.80226 5.07688 6.82935 6.05069 6.82935 7.2477C6.82935 8.4438 7.80226 9.41671 8.99927 9.41671C10.1963 9.41671 11.1701 8.4438 11.1701 7.2477C11.1701 6.05069 10.1963 5.07688 8.99927 5.07688ZM8.99934 10.7668C7.05803 10.7668 5.47942 9.1882 5.47942 7.24779C5.47942 5.30647 7.05803 3.72696 8.99934 3.72696C10.9407 3.72696 12.5202 5.30647 12.5202 7.24779C12.5202 9.1882 10.9407 10.7668 8.99934 10.7668Z" fill="white"/>
<mask id="mask0_426_219" style="mask-type:alpha" maskUnits="userSpaceOnUse" x="0" y="0" width="18" height="15">
<path fill-rule="evenodd" clip-rule="evenodd" d="M0 0H18V14.4946H0V0Z" fill="white"/>
</mask>
<g mask="url(#mask0_426_219)">
<path fill-rule="evenodd" clip-rule="evenodd" d="M1.41274 7.24699C3.08675 10.9451 5.90647 13.1438 8.99979 13.1447C12.0931 13.1438 14.9128 10.9451 16.5869 7.24699C14.9128 3.54977 12.0931 1.35105 8.99979 1.35015C5.90737 1.35105 3.08675 3.54977 1.41274 7.24699ZM9.00164 14.4949H8.99804H8.99714C5.27471 14.4922 1.93209 11.8831 0.0546754 7.51358C-0.0182251 7.34348 -0.0182251 7.15088 0.0546754 6.98078C1.93209 2.61215 5.27561 0.00302693 8.99714 0.000326914C8.99894 -0.000573093 8.99894 -0.000573093 8.99984 0.000326914C9.00164 -0.000573093 9.00164 -0.000573093 9.00254 0.000326914C12.725 0.00302693 16.0676 2.61215 17.945 6.98078C18.0188 7.15088 18.0188 7.34348 17.945 7.51358C16.0685 11.8831 12.725 14.4922 9.00254 14.4949H9.00164Z" fill="white"/>
</g>
</svg>
