<svg width="18" height="18" viewBox="0 0 18 18" fill="none" xmlns="http://www.w3.org/2000/svg">
<path d="M5.98356 6.37769C6.56356 7.5857 7.35422 8.7179 8.35553 9.71922C9.35685 10.7205 10.4891 11.5112 11.6971 12.0912C11.801 12.1411 11.8529 12.166 11.9187 12.1852C12.1523 12.2533 12.4392 12.2044 12.637 12.0627C12.6927 12.0228 12.7403 11.9752 12.8356 11.8799C13.1269 11.5886 13.2726 11.4429 13.4191 11.3477C13.9715 10.9885 14.6837 10.9885 15.2361 11.3477C15.3825 11.4429 15.5282 11.5886 15.8196 11.8799L15.9819 12.0423C16.4248 12.4852 16.6462 12.7066 16.7665 12.9445C17.0058 13.4174 17.0058 13.976 16.7665 14.4489C16.6462 14.6868 16.4248 14.9082 15.9819 15.3511L15.8506 15.4824C15.4092 15.9238 15.1886 16.1445 14.8885 16.313C14.5556 16.5 14.0385 16.6345 13.6567 16.6333C13.3126 16.6323 13.0774 16.5656 12.607 16.4321C10.0792 15.7146 7.69387 14.3609 5.70388 12.3709C3.7139 10.3809 2.36017 7.99559 1.6427 5.46776C1.50919 4.99738 1.44244 4.7622 1.44141 4.41808C1.44028 4.03622 1.57475 3.51915 1.76176 3.18623C1.9303 2.8862 2.15098 2.66552 2.59233 2.22417L2.72369 2.09281C3.16656 1.64994 3.388 1.42851 3.62581 1.30822C4.09878 1.06899 4.65734 1.06899 5.1303 1.30822C5.36812 1.42851 5.58955 1.64994 6.03242 2.09281L6.19481 2.2552C6.48615 2.54654 6.63182 2.69221 6.72706 2.83869C7.08622 3.3911 7.08622 4.10325 6.72706 4.65566C6.63182 4.80214 6.48615 4.94781 6.19481 5.23915C6.09955 5.33441 6.05192 5.38204 6.01206 5.43771C5.87038 5.63557 5.82146 5.92245 5.88957 6.15608C5.90873 6.22182 5.93367 6.27378 5.98356 6.37769Z" stroke="white" stroke-width="1.5" stroke-linecap="round" stroke-linejoin="round"/>
</svg>
