<svg width="38" height="38" viewBox="0 0 38 38" fill="none" xmlns="http://www.w3.org/2000/svg">
<path d="M27.05 36.25H9.28513C8.12398 36.25 7.54341 36.25 7.27457 36.0204C7.0413 35.8212 6.91751 35.5223 6.94158 35.2165C6.96931 34.864 7.37984 34.4535 8.2009 33.6324L24.4982 17.3351C25.2572 16.5761 25.6368 16.1966 26.0744 16.0544C26.4593 15.9293 26.874 15.9293 27.2589 16.0544C27.6966 16.1966 28.0761 16.5761 28.8351 17.3351L36.25 24.75V27.05M27.05 36.25C30.2703 36.25 31.8805 36.25 33.1104 35.6233C34.1924 35.072 35.072 34.1924 35.6233 33.1104C36.25 31.8805 36.25 30.2703 36.25 27.05M27.05 36.25H10.95C7.7297 36.25 6.11955 36.25 4.88955 35.6233C3.80762 35.072 2.92798 34.1924 2.37671 33.1104C1.75 31.8805 1.75 30.2703 1.75 27.05V10.95C1.75 7.7297 1.75 6.11955 2.37671 4.88955C2.92798 3.80762 3.80762 2.92798 4.88955 2.37671C6.11955 1.75 7.7297 1.75 10.95 1.75H27.05C30.2703 1.75 31.8805 1.75 33.1104 2.37671C34.1924 2.92798 35.072 3.80762 35.6233 4.88955C36.25 6.11955 36.25 7.7297 36.25 10.95V27.05M16.125 12.2917C16.125 14.4088 14.4088 16.125 12.2917 16.125C10.1746 16.125 8.45833 14.4088 8.45833 12.2917C8.45833 10.1746 10.1746 8.45833 12.2917 8.45833C14.4088 8.45833 16.125 10.1746 16.125 12.2917Z" stroke="white" stroke-width="3" stroke-linecap="round" stroke-linejoin="round"/>
</svg>
