<svg width="20" height="20" viewBox="0 0 20 20" fill="none" xmlns="http://www.w3.org/2000/svg">
<path d="M4.43025 16.1987C4.93719 15.0043 6.12077 14.1667 7.50001 14.1667H12.5C13.8792 14.1667 15.0628 15.0043 15.5698 16.1987M13.3333 7.91666C13.3333 9.75761 11.841 11.25 10 11.25C8.15906 11.25 6.66667 9.75761 6.66667 7.91666C6.66667 6.07571 8.15906 4.58332 10 4.58332C11.841 4.58332 13.3333 6.07571 13.3333 7.91666ZM18.3333 9.99999C18.3333 14.6024 14.6024 18.3333 10 18.3333C5.39763 18.3333 1.66667 14.6024 1.66667 9.99999C1.66667 5.39762 5.39763 1.66666 10 1.66666C14.6024 1.66666 18.3333 5.39762 18.3333 9.99999Z" stroke="white" stroke-width="1.5" stroke-linecap="round" stroke-linejoin="round"/>
</svg>
