<svg width="35" height="35" viewBox="0 0 35 35" fill="none" xmlns="http://www.w3.org/2000/svg">
<rect x="1" y="1" width="33" height="33" rx="16.5" stroke="white" stroke-width="2"/>
<path d="M13.125 12.1248C13.125 11.3802 13.125 11.008 13.2828 10.8028C13.4202 10.624 13.6303 10.5134 13.8577 10.5C14.1187 10.4847 14.4335 10.6912 15.063 11.1042L23.2557 16.4786C23.7759 16.8198 24.036 16.9905 24.1266 17.2055C24.2058 17.3935 24.2058 17.6049 24.1266 17.7929C24.036 18.0079 23.7759 18.1786 23.2557 18.5198L15.063 23.8943C14.4335 24.3072 14.1187 24.5137 13.8577 24.4984C13.6303 24.485 13.4202 24.3744 13.2828 24.1956C13.125 23.9904 13.125 23.6182 13.125 22.8736V12.1248Z" stroke="white" stroke-width="2" stroke-linecap="round" stroke-linejoin="round"/>
</svg>
