<svg width="54" height="73" viewBox="0 0 54 73" fill="none" xmlns="http://www.w3.org/2000/svg">
<rect x="1" y="1" width="52" height="52" rx="26" fill="#303030" stroke="white" stroke-width="2" stroke-dasharray="2 2"/>
<rect x="7" y="7" width="40" height="40" rx="20" fill="#D20000"/>
<path d="M16.5508 72V70.716H18.4948V64.836H19.2388L16.7428 66.324V64.86L18.9388 63.54H20.0428V70.716H21.8668V72H16.5508ZM23.0621 67.596V65.94H24.7421V67.596H23.0621ZM23.0621 72V70.332H24.7421V72H23.0621ZM26.3266 72V70.86L29.1346 67.932C29.4866 67.564 29.7466 67.224 29.9146 66.912C30.0826 66.6 30.1666 66.28 30.1666 65.952C30.1666 65.544 30.0386 65.236 29.7826 65.028C29.5266 64.82 29.1546 64.716 28.6666 64.716C28.2746 64.716 27.8986 64.788 27.5386 64.932C27.1786 65.068 26.8266 65.284 26.4826 65.58L25.9786 64.428C26.3226 64.124 26.7466 63.88 27.2506 63.696C27.7626 63.512 28.2986 63.42 28.8586 63.42C29.7706 63.42 30.4706 63.624 30.9586 64.032C31.4466 64.44 31.6906 65.024 31.6906 65.784C31.6906 66.312 31.5666 66.816 31.3186 67.296C31.0706 67.768 30.6866 68.264 30.1666 68.784L27.8266 71.124V70.716H32.0266V72H26.3266ZM33.5219 72V70.86L36.3299 67.932C36.6819 67.564 36.9419 67.224 37.1099 66.912C37.2779 66.6 37.3619 66.28 37.3619 65.952C37.3619 65.544 37.2339 65.236 36.9779 65.028C36.7219 64.82 36.3499 64.716 35.8619 64.716C35.4699 64.716 35.0939 64.788 34.7339 64.932C34.3739 65.068 34.0219 65.284 33.6779 65.58L33.1739 64.428C33.5179 64.124 33.9419 63.88 34.4459 63.696C34.9579 63.512 35.4939 63.42 36.0539 63.42C36.9659 63.42 37.6659 63.624 38.1539 64.032C38.6419 64.44 38.8859 65.024 38.8859 65.784C38.8859 66.312 38.7619 66.816 38.5139 67.296C38.2659 67.768 37.8819 68.264 37.3619 68.784L35.0219 71.124V70.716H39.2219V72H33.5219Z" fill="#D20000"/>
</svg>
