<svg width="54" height="73" viewBox="0 0 54 73" fill="none" xmlns="http://www.w3.org/2000/svg">
<rect x="1" y="1" width="52" height="52" rx="26" fill="#303030" stroke="white" stroke-width="2" stroke-dasharray="2 2"/>
<rect x="7" y="7" width="40" height="40" rx="20" fill="white"/>
<path d="M8.46755 72V63.54H11.9715C12.8755 63.54 13.5715 63.752 14.0595 64.176C14.5555 64.6 14.8035 65.192 14.8035 65.952C14.8035 66.456 14.6915 66.884 14.4675 67.236C14.2435 67.588 13.9275 67.856 13.5195 68.04C13.1195 68.224 12.6515 68.316 12.1155 68.316L12.3195 68.148H12.6075C12.9355 68.148 13.2275 68.232 13.4835 68.4C13.7395 68.56 13.9515 68.824 14.1195 69.192L15.3195 72H14.0835L12.9195 69.216C12.7835 68.872 12.5835 68.648 12.3195 68.544C12.0635 68.44 11.7395 68.388 11.3475 68.388H9.58355V72H8.46755ZM9.58355 67.524H11.8035C12.4195 67.524 12.8875 67.392 13.2075 67.128C13.5355 66.864 13.6995 66.48 13.6995 65.976C13.6995 65.48 13.5355 65.104 13.2075 64.848C12.8875 64.584 12.4195 64.452 11.8035 64.452H9.58355V67.524ZM19.2987 72.108C18.3387 72.108 17.5787 71.832 17.0187 71.28C16.4667 70.728 16.1907 69.968 16.1907 69C16.1907 68.36 16.3107 67.808 16.5507 67.344C16.7987 66.872 17.1387 66.508 17.5707 66.252C18.0027 65.988 18.5067 65.856 19.0827 65.856C19.6347 65.856 20.1027 65.976 20.4867 66.216C20.8707 66.448 21.1627 66.78 21.3627 67.212C21.5627 67.644 21.6627 68.156 21.6627 68.748V69.108H17.0427V68.46H20.9187L20.7147 68.616C20.7147 67.992 20.5747 67.508 20.2947 67.164C20.0227 66.82 19.6187 66.648 19.0827 66.648C18.4987 66.648 18.0467 66.852 17.7267 67.26C17.4067 67.66 17.2467 68.208 17.2467 68.904V69.012C17.2467 69.748 17.4267 70.304 17.7867 70.68C18.1547 71.056 18.6627 71.244 19.3107 71.244C19.6707 71.244 20.0067 71.192 20.3187 71.088C20.6307 70.984 20.9307 70.812 21.2187 70.572L21.5787 71.328C21.3067 71.576 20.9667 71.768 20.5587 71.904C20.1587 72.04 19.7387 72.108 19.2987 72.108ZM25.6817 72.108C25.0817 72.108 24.5617 71.984 24.1217 71.736C23.6817 71.48 23.3377 71.116 23.0897 70.644C22.8497 70.164 22.7297 69.596 22.7297 68.94C22.7297 68.292 22.8537 67.74 23.1017 67.284C23.3497 66.82 23.6937 66.468 24.1337 66.228C24.5737 65.98 25.0897 65.856 25.6817 65.856C26.0737 65.856 26.4537 65.924 26.8217 66.06C27.1897 66.188 27.4897 66.376 27.7217 66.624L27.3497 67.392C27.1177 67.168 26.8617 67.004 26.5817 66.9C26.3017 66.788 26.0257 66.732 25.7537 66.732C25.1617 66.732 24.6977 66.924 24.3617 67.308C24.0257 67.684 23.8577 68.232 23.8577 68.952C23.8577 69.68 24.0257 70.24 24.3617 70.632C24.6977 71.024 25.1617 71.22 25.7537 71.22C26.0177 71.22 26.2897 71.168 26.5697 71.064C26.8497 70.96 27.1097 70.796 27.3497 70.572L27.7217 71.328C27.4817 71.584 27.1737 71.78 26.7977 71.916C26.4297 72.044 26.0577 72.108 25.6817 72.108ZM31.4814 72.108C30.8894 72.108 30.3774 71.984 29.9454 71.736C29.5134 71.48 29.1774 71.12 28.9374 70.656C28.6974 70.184 28.5774 69.624 28.5774 68.976C28.5774 68.336 28.6974 67.784 28.9374 67.32C29.1774 66.848 29.5134 66.488 29.9454 66.24C30.3774 65.984 30.8894 65.856 31.4814 65.856C32.0734 65.856 32.5854 65.984 33.0174 66.24C33.4574 66.488 33.7934 66.848 34.0254 67.32C34.2654 67.784 34.3854 68.336 34.3854 68.976C34.3854 69.624 34.2654 70.184 34.0254 70.656C33.7934 71.12 33.4574 71.48 33.0174 71.736C32.5854 71.984 32.0734 72.108 31.4814 72.108ZM31.4814 71.244C32.0254 71.244 32.4614 71.052 32.7894 70.668C33.1174 70.284 33.2814 69.72 33.2814 68.976C33.2814 68.232 33.1174 67.672 32.7894 67.296C32.4614 66.92 32.0254 66.732 31.4814 66.732C30.9294 66.732 30.4894 66.92 30.1614 67.296C29.8414 67.672 29.6814 68.232 29.6814 68.976C29.6814 69.72 29.8414 70.284 30.1614 70.668C30.4894 71.052 30.9294 71.244 31.4814 71.244ZM35.8395 72V67.44C35.8395 67.2 35.8315 66.956 35.8155 66.708C35.8075 66.452 35.7875 66.204 35.7555 65.964H36.8115L36.9435 67.476L36.7635 67.488C36.8435 67.12 36.9795 66.816 37.1715 66.576C37.3715 66.328 37.6075 66.148 37.8795 66.036C38.1595 65.916 38.4475 65.856 38.7435 65.856C38.8715 65.856 38.9795 65.86 39.0675 65.868C39.1555 65.876 39.2435 65.896 39.3315 65.928L39.3075 66.9C39.1875 66.852 39.0755 66.824 38.9715 66.816C38.8755 66.8 38.7555 66.792 38.6115 66.792C38.2595 66.792 37.9555 66.872 37.6995 67.032C37.4515 67.192 37.2595 67.404 37.1235 67.668C36.9955 67.932 36.9315 68.216 36.9315 68.52V72H35.8395ZM42.5148 72.108C41.9868 72.108 41.5228 71.984 41.1228 71.736C40.7228 71.488 40.4108 71.128 40.1868 70.656C39.9628 70.184 39.8508 69.624 39.8508 68.976C39.8508 68.328 39.9628 67.772 40.1868 67.308C40.4108 66.836 40.7228 66.476 41.1228 66.228C41.5228 65.98 41.9868 65.856 42.5148 65.856C43.0428 65.856 43.5028 65.988 43.8948 66.252C44.2948 66.516 44.5628 66.88 44.6988 67.344H44.5548V63.168H45.6468V72H44.5668V70.596H44.6988C44.5708 71.068 44.3068 71.44 43.9068 71.712C43.5148 71.976 43.0508 72.108 42.5148 72.108ZM42.7668 71.244C43.3108 71.244 43.7468 71.052 44.0748 70.668C44.4108 70.284 44.5788 69.72 44.5788 68.976C44.5788 68.232 44.4108 67.672 44.0748 67.296C43.7468 66.92 43.3108 66.732 42.7668 66.732C42.2228 66.732 41.7828 66.92 41.4468 67.296C41.1188 67.672 40.9548 68.232 40.9548 68.976C40.9548 69.72 41.1188 70.284 41.4468 70.668C41.7828 71.052 42.2228 71.244 42.7668 71.244Z" fill="white"/>
</svg>
