<svg width="50" height="71" viewBox="0 0 50 71" fill="none" xmlns="http://www.w3.org/2000/svg">
<rect x="1" y="1" width="48" height="48" rx="24" fill="#313131" stroke="white" stroke-width="2"/>
<path d="M13.6215 17.6128L14.5786 21.1872L18.1541 20.2297M14.6287 20.4607C14.8023 20.0649 14.9995 19.6746 15.2207 19.2916C18.4725 13.6591 25.6747 11.7293 31.3072 14.9812C36.9396 18.2331 38.8694 25.4353 35.6175 31.0677C32.3656 36.7001 25.1635 38.63 19.531 35.3781C16.3273 33.5284 14.3215 30.4006 13.7858 27.0107" stroke="white" stroke-width="2" stroke-linecap="round" stroke-linejoin="round"/>
<path d="M22.9119 21.1612C22.9119 20.6294 22.9119 20.3635 23.0246 20.2169C23.1227 20.0892 23.2728 20.0102 23.4352 20.0007C23.6216 19.9897 23.8465 20.1372 24.2962 20.4322L30.1481 24.2711C30.5196 24.5148 30.7054 24.6367 30.7702 24.7903C30.8268 24.9246 30.8268 25.0756 30.7702 25.2099C30.7054 25.3635 30.5196 25.4854 30.1481 25.7291L24.2962 29.568C23.8465 29.863 23.6216 30.0105 23.4352 29.9995C23.2728 29.99 23.1227 29.911 23.0246 29.7833C22.9119 29.6367 22.9119 29.3708 22.9119 28.839V21.1612Z" stroke="white" stroke-width="2" stroke-linecap="round" stroke-linejoin="round"/>
<path d="M7.26052 68V59.54H10.7645C11.6685 59.54 12.3645 59.752 12.8525 60.176C13.3485 60.6 13.5965 61.192 13.5965 61.952C13.5965 62.456 13.4845 62.884 13.2605 63.236C13.0365 63.588 12.7205 63.856 12.3125 64.04C11.9125 64.224 11.4445 64.316 10.9085 64.316L11.1125 64.148H11.4005C11.7285 64.148 12.0205 64.232 12.2765 64.4C12.5325 64.56 12.7445 64.824 12.9125 65.192L14.1125 68H12.8765L11.7125 65.216C11.5765 64.872 11.3765 64.648 11.1125 64.544C10.8565 64.44 10.5325 64.388 10.1405 64.388H8.37652V68H7.26052ZM8.37652 63.524H10.5965C11.2125 63.524 11.6805 63.392 12.0005 63.128C12.3285 62.864 12.4925 62.48 12.4925 61.976C12.4925 61.48 12.3285 61.104 12.0005 60.848C11.6805 60.584 11.2125 60.452 10.5965 60.452H8.37652V63.524ZM18.0916 68.108C17.1316 68.108 16.3716 67.832 15.8116 67.28C15.2596 66.728 14.9836 65.968 14.9836 65C14.9836 64.36 15.1036 63.808 15.3436 63.344C15.5916 62.872 15.9316 62.508 16.3636 62.252C16.7956 61.988 17.2996 61.856 17.8756 61.856C18.4276 61.856 18.8956 61.976 19.2796 62.216C19.6636 62.448 19.9556 62.78 20.1556 63.212C20.3556 63.644 20.4556 64.156 20.4556 64.748V65.108H15.8356V64.46H19.7116L19.5076 64.616C19.5076 63.992 19.3676 63.508 19.0876 63.164C18.8156 62.82 18.4116 62.648 17.8756 62.648C17.2916 62.648 16.8396 62.852 16.5196 63.26C16.1996 63.66 16.0396 64.208 16.0396 64.904V65.012C16.0396 65.748 16.2196 66.304 16.5796 66.68C16.9476 67.056 17.4556 67.244 18.1036 67.244C18.4636 67.244 18.7996 67.192 19.1116 67.088C19.4236 66.984 19.7236 66.812 20.0116 66.572L20.3716 67.328C20.0996 67.576 19.7596 67.768 19.3516 67.904C18.9516 68.04 18.5316 68.108 18.0916 68.108ZM21.8827 70.592V63.392C21.8827 63.16 21.8747 62.924 21.8587 62.684C21.8427 62.444 21.8187 62.204 21.7867 61.964H22.8427L22.9747 63.356H22.8427C22.9627 62.892 23.2187 62.528 23.6107 62.264C24.0027 61.992 24.4707 61.856 25.0147 61.856C25.5507 61.856 26.0187 61.98 26.4187 62.228C26.8187 62.476 27.1267 62.836 27.3427 63.308C27.5667 63.772 27.6787 64.328 27.6787 64.976C27.6787 65.624 27.5667 66.184 27.3427 66.656C27.1267 67.128 26.8187 67.488 26.4187 67.736C26.0187 67.984 25.5507 68.108 25.0147 68.108C24.4787 68.108 24.0147 67.976 23.6227 67.712C23.2387 67.44 22.9787 67.076 22.8427 66.62H22.9747V70.592H21.8827ZM24.7627 67.244C25.3147 67.244 25.7547 67.052 26.0827 66.668C26.4107 66.284 26.5747 65.72 26.5747 64.976C26.5747 64.232 26.4107 63.672 26.0827 63.296C25.7547 62.92 25.3147 62.732 24.7627 62.732C24.2107 62.732 23.7707 62.92 23.4427 63.296C23.1227 63.672 22.9627 64.232 22.9627 64.976C22.9627 65.72 23.1227 66.284 23.4427 66.668C23.7707 67.052 24.2107 67.244 24.7627 67.244ZM29.1483 68V59.168H30.2403V68H29.1483ZM34.3703 68.108C33.8423 68.108 33.3783 67.984 32.9783 67.736C32.5783 67.488 32.2663 67.128 32.0423 66.656C31.8183 66.184 31.7063 65.624 31.7063 64.976C31.7063 64.328 31.8183 63.772 32.0423 63.308C32.2663 62.836 32.5783 62.476 32.9783 62.228C33.3783 61.98 33.8423 61.856 34.3703 61.856C34.9063 61.856 35.3703 61.992 35.7623 62.264C36.1623 62.528 36.4263 62.892 36.5543 63.356H36.4103L36.5423 61.964H37.5983C37.5743 62.204 37.5503 62.444 37.5263 62.684C37.5103 62.924 37.5023 63.16 37.5023 63.392V68H36.4103V66.62H36.5423C36.4143 67.076 36.1503 67.44 35.7503 67.712C35.3583 67.976 34.8983 68.108 34.3703 68.108ZM34.6223 67.244C35.1663 67.244 35.6023 67.052 35.9303 66.668C36.2583 66.284 36.4223 65.72 36.4223 64.976C36.4223 64.232 36.2583 63.672 35.9303 63.296C35.6023 62.92 35.1663 62.732 34.6223 62.732C34.0783 62.732 33.6383 62.92 33.3023 63.296C32.9743 63.672 32.8103 64.232 32.8103 64.976C32.8103 65.72 32.9743 66.284 33.3023 66.668C33.6303 67.052 34.0703 67.244 34.6223 67.244ZM39.0693 70.724L38.8173 69.836C39.1933 69.748 39.5053 69.644 39.7533 69.524C40.0013 69.412 40.2093 69.264 40.3773 69.08C40.5453 68.896 40.6933 68.664 40.8213 68.384L41.1213 67.664L41.0973 68.12L38.4693 61.964H39.6453L41.7453 67.136H41.4333L43.5333 61.964H44.6613L41.8893 68.468C41.7213 68.86 41.5373 69.188 41.3373 69.452C41.1453 69.716 40.9333 69.932 40.7013 70.1C40.4773 70.268 40.2293 70.4 39.9573 70.496C39.6853 70.592 39.3893 70.668 39.0693 70.724Z" fill="white"/>
</svg>
