<svg width="50" height="69" viewBox="0 0 50 69" fill="none" xmlns="http://www.w3.org/2000/svg">
<rect x="1" y="1" width="48" height="48" rx="24" fill="#313131" stroke="white" stroke-width="2"/>
<path d="M15.3215 18.2347L16.1343 21.27L19.1705 20.4569M16.1768 20.653C16.3243 20.3169 16.4917 19.9855 16.6795 19.6603C19.4409 14.8773 25.5568 13.2386 30.3397 16C35.1227 18.7614 36.7614 24.8773 34 29.6603C31.2386 34.4432 25.1227 36.0819 20.3397 33.3205C17.6192 31.7498 15.9159 29.0938 15.461 26.2151" stroke="white" stroke-width="2" stroke-linecap="round" stroke-linejoin="round"/>
<path d="M10.2761 68V59.54H13.7801C14.6841 59.54 15.3801 59.752 15.8681 60.176C16.3641 60.6 16.6121 61.192 16.6121 61.952C16.6121 62.456 16.5001 62.884 16.2761 63.236C16.0521 63.588 15.7361 63.856 15.3281 64.04C14.9281 64.224 14.4601 64.316 13.9241 64.316L14.1281 64.148H14.4161C14.7441 64.148 15.0361 64.232 15.2921 64.4C15.5481 64.56 15.7601 64.824 15.9281 65.192L17.1281 68H15.8921L14.7281 65.216C14.5921 64.872 14.3921 64.648 14.1281 64.544C13.8721 64.44 13.5481 64.388 13.1561 64.388H11.3921V68H10.2761ZM11.3921 63.524H13.6121C14.2281 63.524 14.6961 63.392 15.0161 63.128C15.3441 62.864 15.5081 62.48 15.5081 61.976C15.5081 61.48 15.3441 61.104 15.0161 60.848C14.6961 60.584 14.2281 60.452 13.6121 60.452H11.3921V63.524ZM21.1073 68.108C20.1473 68.108 19.3873 67.832 18.8273 67.28C18.2753 66.728 17.9993 65.968 17.9993 65C17.9993 64.36 18.1193 63.808 18.3593 63.344C18.6073 62.872 18.9473 62.508 19.3793 62.252C19.8113 61.988 20.3153 61.856 20.8913 61.856C21.4433 61.856 21.9113 61.976 22.2953 62.216C22.6793 62.448 22.9713 62.78 23.1713 63.212C23.3713 63.644 23.4713 64.156 23.4713 64.748V65.108H18.8513V64.46H22.7273L22.5233 64.616C22.5233 63.992 22.3833 63.508 22.1033 63.164C21.8313 62.82 21.4273 62.648 20.8913 62.648C20.3073 62.648 19.8553 62.852 19.5353 63.26C19.2153 63.66 19.0553 64.208 19.0553 64.904V65.012C19.0553 65.748 19.2353 66.304 19.5953 66.68C19.9633 67.056 20.4713 67.244 21.1193 67.244C21.4793 67.244 21.8153 67.192 22.1273 67.088C22.4393 66.984 22.7393 66.812 23.0273 66.572L23.3873 67.328C23.1153 67.576 22.7753 67.768 22.3673 67.904C21.9673 68.04 21.5473 68.108 21.1073 68.108ZM26.9383 68.108C26.4503 68.108 25.9943 68.044 25.5703 67.916C25.1543 67.788 24.8103 67.604 24.5383 67.364L24.8863 66.608C25.1823 66.832 25.5063 67.004 25.8583 67.124C26.2183 67.236 26.5863 67.292 26.9623 67.292C27.4183 67.292 27.7623 67.208 27.9943 67.04C28.2343 66.872 28.3543 66.648 28.3543 66.368C28.3543 66.144 28.2783 65.964 28.1263 65.828C27.9743 65.692 27.7343 65.592 27.4063 65.528L26.2663 65.3C25.7543 65.18 25.3663 64.988 25.1023 64.724C24.8463 64.452 24.7183 64.104 24.7183 63.68C24.7183 63.328 24.8143 63.016 25.0063 62.744C25.1983 62.464 25.4703 62.248 25.8223 62.096C26.1823 61.936 26.6023 61.856 27.0823 61.856C27.5223 61.856 27.9303 61.92 28.3063 62.048C28.6903 62.176 29.0063 62.364 29.2543 62.612L28.8943 63.344C28.6463 63.128 28.3663 62.964 28.0543 62.852C27.7503 62.732 27.4383 62.672 27.1183 62.672C26.6543 62.672 26.3103 62.764 26.0863 62.948C25.8623 63.124 25.7503 63.356 25.7503 63.644C25.7503 63.86 25.8183 64.04 25.9543 64.184C26.0903 64.32 26.3103 64.424 26.6143 64.496L27.7543 64.724C28.2903 64.836 28.6943 65.02 28.9663 65.276C29.2383 65.532 29.3743 65.872 29.3743 66.296C29.3743 66.672 29.2703 66.996 29.0623 67.268C28.8623 67.54 28.5783 67.748 28.2103 67.892C27.8503 68.036 27.4263 68.108 26.9383 68.108ZM33.6112 68.108C32.6512 68.108 31.8912 67.832 31.3312 67.28C30.7792 66.728 30.5032 65.968 30.5032 65C30.5032 64.36 30.6232 63.808 30.8632 63.344C31.1112 62.872 31.4512 62.508 31.8832 62.252C32.3152 61.988 32.8192 61.856 33.3952 61.856C33.9472 61.856 34.4152 61.976 34.7992 62.216C35.1832 62.448 35.4752 62.78 35.6752 63.212C35.8752 63.644 35.9752 64.156 35.9752 64.748V65.108H31.3552V64.46H35.2312L35.0272 64.616C35.0272 63.992 34.8872 63.508 34.6072 63.164C34.3352 62.82 33.9312 62.648 33.3952 62.648C32.8112 62.648 32.3592 62.852 32.0392 63.26C31.7192 63.66 31.5592 64.208 31.5592 64.904V65.012C31.5592 65.748 31.7392 66.304 32.0992 66.68C32.4672 67.056 32.9752 67.244 33.6232 67.244C33.9832 67.244 34.3192 67.192 34.6312 67.088C34.9432 66.984 35.2432 66.812 35.5312 66.572L35.8912 67.328C35.6192 67.576 35.2792 67.768 34.8712 67.904C34.4712 68.04 34.0512 68.108 33.6112 68.108ZM39.6465 68.108C39.0145 68.108 38.5345 67.936 38.2065 67.592C37.8865 67.24 37.7265 66.712 37.7265 66.008V62.804H36.5505V61.964H37.7265V60.344L38.8185 60.044V61.964H40.5225V62.804H38.8185V65.912C38.8185 66.376 38.8985 66.708 39.0585 66.908C39.2265 67.1 39.4665 67.196 39.7785 67.196C39.9385 67.196 40.0745 67.184 40.1865 67.16C40.3065 67.128 40.4145 67.092 40.5105 67.052V67.952C40.3905 68 40.2505 68.036 40.0905 68.06C39.9385 68.092 39.7905 68.108 39.6465 68.108Z" fill="white"/>
</svg>
