<svg width="22" height="26" viewBox="0 0 22 26" fill="none" xmlns="http://www.w3.org/2000/svg">
<path d="M1.80005 6.76C1.80005 4.74381 1.80005 3.73572 2.19243 2.96563C2.53757 2.28825 3.0883 1.73752 3.76568 1.39238C4.53577 1 5.54386 1 7.56005 1H11.4142C12.2947 1 12.735 1 13.1493 1.09947C13.5166 1.18766 13.8678 1.33311 14.1899 1.5305C14.5532 1.75313 14.8645 2.06444 15.4871 2.68707L19.313 6.51293C19.9356 7.13556 20.2469 7.44687 20.4696 7.81017C20.6669 8.13227 20.8124 8.48344 20.9006 8.85077C21 9.26508 21 9.70534 21 10.5859V19.24C21 21.2562 21 22.2643 20.6077 23.0344C20.2625 23.7117 19.7118 24.2625 19.0344 24.6076C18.2643 25 17.2562 25 15.24 25H7.56005C5.54386 25 4.53577 25 3.76568 24.6076C3.0883 24.2625 2.53757 23.7117 2.19243 23.0344C1.80005 22.2643 1.80005 21.2562 1.80005 19.24V6.76Z" stroke="white" stroke-width="2" stroke-linecap="round" stroke-linejoin="round"/>
<path d="M6.60005 15.16C6.60005 14.824 6.60005 14.656 6.66545 14.5276C6.72297 14.4147 6.81476 14.3229 6.92765 14.2654C7.056 14.2 7.22402 14.2 7.56005 14.2H15.24C15.5761 14.2 15.7441 14.2 15.8724 14.2654C15.9853 14.3229 16.0771 14.4147 16.1347 14.5276C16.2 14.656 16.2 14.824 16.2 15.16V19.24C16.2 19.576 16.2 19.744 16.1347 19.8724C16.0771 19.9853 15.9853 20.0771 15.8724 20.1346C15.7441 20.2 15.5761 20.2 15.24 20.2H7.56005C7.22402 20.2 7.056 20.2 6.92765 20.1346C6.81476 20.0771 6.72297 19.9853 6.66545 19.8724C6.60005 19.744 6.60005 19.576 6.60005 19.24V15.16Z" stroke="white" stroke-width="2" stroke-linecap="round" stroke-linejoin="round"/>
</svg>
