<svg width="35" height="35" viewBox="0 0 35 35" fill="none" xmlns="http://www.w3.org/2000/svg">
<path d="M6.62145 10.6128L7.57864 14.1872L11.1541 13.2297M7.62867 13.4607C7.80234 13.0649 7.99952 12.6746 8.22065 12.2916C11.4725 6.65911 18.6747 4.7293 24.3072 7.98119C29.9396 11.2331 31.8694 18.4353 28.6175 24.0677C25.3656 29.7001 18.1635 31.63 12.531 28.3781C9.32728 26.5284 7.32147 23.4006 6.78578 20.0107" stroke="white" stroke-width="2" stroke-linecap="round" stroke-linejoin="round"/>
<path d="M15.9119 14.1612C15.9119 13.6294 15.9119 13.3635 16.0246 13.2169C16.1227 13.0892 16.2728 13.0102 16.4352 13.0007C16.6216 12.9897 16.8465 13.1372 17.2962 13.4322L23.1481 17.2711C23.5196 17.5148 23.7054 17.6367 23.7702 17.7903C23.8268 17.9246 23.8268 18.0756 23.7702 18.2099C23.7054 18.3635 23.5196 18.4854 23.1481 18.7291L17.2962 22.568C16.8465 22.863 16.6216 23.0105 16.4352 22.9995C16.2728 22.99 16.1227 22.911 16.0246 22.7833C15.9119 22.6367 15.9119 22.3708 15.9119 21.839V14.1612Z" stroke="white" stroke-width="2" stroke-linecap="round" stroke-linejoin="round"/>
</svg>
